<svg width="25" height="25" viewBox="0 0 25 25" fill="none" xmlns="http://www.w3.org/2000/svg">
<path d="M12.5 3.5C8.66504 3.5 5.46289 5.87012 4.15625 9.21875L5.53906 9.78125C6.63184 6.98047 9.2832 5 12.5 5C14.9316 5 17.0996 6.19238 18.4531 8H15.5V9.5H20.75V4.25H19.25V6.57031C17.6064 4.68652 15.1777 3.5 12.5 3.5ZM19.4609 15.2188C18.3682 18.0195 15.7168 20 12.5 20C10.042 20 7.88281 18.79 6.52344 17H9.5V15.5H4.25V20.75H5.75V18.4297C7.39062 20.29 9.7959 21.5 12.5 21.5C16.335 21.5 19.5371 19.1299 20.8438 15.7812L19.4609 15.2188Z" fill="#E3AB00"/>
</svg>
