<svg width="50" height="64" viewBox="0 0 50 64" fill="none" xmlns="http://www.w3.org/2000/svg">
<path d="M43.6852 57.3341C43.1813 57.3341 42.7727 57.7491 42.7727 58.2611V60.9027C42.7727 61.4121 42.3647 61.8265 41.8632 61.8265H2.92196C2.42055 61.8265 2.01258 61.4121 2.01258 60.9027V12.5071C2.01258 11.9951 1.60401 11.5801 1.10004 11.5801C0.596076 11.5801 0.1875 11.9951 0.1875 12.5071V60.9027C0.187378 62.4343 1.41408 63.6804 2.92196 63.6804H41.8633C43.3712 63.6804 44.5979 62.4343 44.5979 60.9027V58.2611C44.5978 57.7491 44.1892 57.3341 43.6852 57.3341Z" fill="#A7A5B6"/>
<path d="M1.10004 9.12004C1.60401 9.12004 2.01258 8.705 2.01258 8.19306V3.17811C2.01258 2.66877 2.42055 2.25435 2.92196 2.25435H32.9174V11.337C32.9174 11.8489 33.3258 12.264 33.8298 12.264L42.7728 12.2655V31.1746C42.7728 31.6865 43.1814 32.1016 43.6854 32.1016C44.1893 32.1016 44.5979 31.6865 44.5979 31.1746V11.3387C44.5979 11.0929 44.5018 10.8571 44.3306 10.6833L34.4751 0.671933C34.3041 0.498032 34.072 0.400391 33.8299 0.400391H2.92209C1.4142 0.400391 0.1875 1.6465 0.1875 3.17811V8.19306C0.1875 8.705 0.596076 9.12004 1.10004 9.12004ZM34.7424 3.56522L41.482 10.4114L34.7424 10.4103V3.56522Z" fill="#A7A5B6"/>
<path d="M48.9744 33.8867H11.5024C10.9984 33.8867 10.5898 34.3018 10.5898 34.8137V54.5892C10.5898 55.1012 10.9984 55.5162 11.5024 55.5162H18.634C19.1379 55.5162 19.5465 55.1012 19.5465 54.5892C19.5465 54.0773 19.1379 53.6623 18.634 53.6623H12.4149V35.7407H48.0619V53.6623H22.8618C22.3579 53.6623 21.9493 54.0773 21.9493 54.5892C21.9493 55.1012 22.3579 55.5162 22.8618 55.5162H48.9743C49.4783 55.5162 49.8868 55.1012 49.8868 54.5892V34.8137C49.887 34.3018 49.4784 33.8867 48.9744 33.8867Z" fill="#A7A5B6"/>
<path d="M33.3331 16.6523H11.5024C10.9984 16.6523 10.5898 17.0674 10.5898 17.5793C10.5898 18.0913 10.9984 18.5063 11.5024 18.5063H33.3331C33.837 18.5063 34.2456 18.0913 34.2456 17.5793C34.2456 17.0674 33.837 16.6523 33.3331 16.6523Z" fill="#A7A5B6"/>
<path d="M33.3331 22.1152H11.5024C10.9984 22.1152 10.5898 22.5303 10.5898 23.0422C10.5898 23.5542 10.9984 23.9692 11.5024 23.9692H33.3331C33.837 23.9692 34.2456 23.5542 34.2456 23.0422C34.2456 22.5303 33.837 22.1152 33.3331 22.1152Z" fill="#A7A5B6"/>
<path d="M33.3348 27.6914H29.0219C28.518 27.6914 28.1094 28.1064 28.1094 28.6184C28.1094 29.1303 28.518 29.5454 29.0219 29.5454H33.3348C33.8388 29.5454 34.2474 29.1303 34.2474 28.6184C34.2474 28.1064 33.8388 27.6914 33.3348 27.6914Z" fill="#A7A5B6"/>
<path d="M11.5024 27.6914C10.9984 27.6914 10.5898 28.1064 10.5898 28.6184C10.5898 29.1303 10.9984 29.5454 11.5024 29.5454H24.7254C25.2293 29.5454 25.6379 29.1303 25.6379 28.6184C25.6379 28.1064 25.2293 27.6914 24.7254 27.6914H11.5024Z" fill="#A7A5B6"/>
<path d="M24.343 42.6722V40.9776C24.343 39.3476 23.0376 38.0215 21.433 38.0215H17.5688C17.0648 38.0215 16.6562 38.4365 16.6562 38.9485V50.4545C16.6562 50.9664 17.0648 51.3815 17.5688 51.3815C18.0728 51.3815 18.4813 50.9664 18.4813 50.4545V45.6285H21.433C23.0375 45.6283 24.343 44.3022 24.343 42.6722ZM22.5179 42.6722C22.5179 43.2799 22.0312 43.7743 21.433 43.7743H18.4813V39.8753H21.433C22.0312 39.8753 22.5179 40.3697 22.5179 40.9774V42.6722Z" fill="#A7A5B6"/>
<path d="M43.1493 39.8754C43.6533 39.8754 44.0619 39.4604 44.0619 38.9485C44.0619 38.4365 43.6533 38.0215 43.1493 38.0215H37.2875C36.7836 38.0215 36.375 38.4365 36.375 38.9485V50.4545C36.375 50.9664 36.7836 51.3815 37.2875 51.3815C37.7915 51.3815 38.2001 50.9664 38.2001 50.4545V45.6285H43.1493C43.6533 45.6285 44.0619 45.2135 44.0619 44.7015C44.0619 44.1896 43.6533 43.7746 43.1493 43.7746H38.2001V39.8756L43.1493 39.8754Z" fill="#A7A5B6"/>
<path d="M31.1752 51.3813C32.7798 51.3813 34.0852 50.0553 34.0852 48.4253V40.9776C34.0852 39.3476 32.7798 38.0215 31.1752 38.0215H27.311C26.807 38.0215 26.3984 38.4365 26.3984 38.9485V50.4545C26.3984 50.9664 26.807 51.3815 27.311 51.3815H31.1752V51.3813ZM28.2235 39.8753H31.1752C31.7734 39.8753 32.2601 40.3697 32.2601 40.9774V48.4251C32.2601 49.0329 31.7734 49.5273 31.1752 49.5273H28.2235V39.8753Z" fill="#A7A5B6"/>
</svg>
