<svg width="25" height="24" viewBox="0 0 25 24" fill="none" xmlns="http://www.w3.org/2000/svg">
<g clip-path="url(#clip0_11358_117608)">
<path d="M2.75 3.75V17.25C2.75 18.9082 4.0918 20.25 5.75 20.25H19.25C20.9082 20.25 22.25 18.9082 22.25 17.25V9H17.75V3.75H2.75ZM4.25 5.25H16.25V17.25C16.25 17.7979 16.417 18.3076 16.6719 18.75H5.75C4.85645 18.75 4.25 18.1436 4.25 17.25V5.25ZM5.75 6.75V10.5H14.75V6.75H5.75ZM7.25 8.25H13.25V9H7.25V8.25ZM17.75 10.5H20.75V17.25C20.75 18.1436 20.1436 18.75 19.25 18.75C18.3564 18.75 17.75 18.1436 17.75 17.25V10.5ZM5.75 11.25V12.75H9.5V11.25H5.75ZM11 11.25V12.75H14.75V11.25H11ZM5.75 13.5V15H9.5V13.5H5.75ZM11 13.5V15H14.75V13.5H11ZM5.75 15.75V17.25H9.5V15.75H5.75ZM11 15.75V17.25H14.75V15.75H11Z" fill="#BBBBBB"/>
</g>
<defs>
<clipPath id="clip0_11358_117608">
<rect width="24" height="24" fill="white" transform="translate(0.5)"/>
</clipPath>
</defs>
</svg>
