<svg width="20" height="20" viewBox="0 0 20 20" fill="none" xmlns="http://www.w3.org/2000/svg">
<path d="M13.125 2.5C12.0044 2.5 10.9888 2.70996 10.1953 3.10547C9.40186 3.50098 8.75 4.14551 8.75 5V7.5C8.75 7.58057 8.77686 7.65869 8.78906 7.73438C8.20801 7.58301 7.56348 7.5 6.875 7.5C5.75439 7.5 4.73877 7.70996 3.94531 8.10547C3.15186 8.50098 2.5 9.14551 2.5 10V15C2.5 15.8545 3.15186 16.499 3.94531 16.8945C4.73877 17.29 5.75439 17.5 6.875 17.5C7.99561 17.5 9.01123 17.29 9.80469 16.8945C10.5981 16.499 11.25 15.8545 11.25 15V14.7461C11.8237 14.8975 12.4512 15 13.125 15C14.2456 15 15.2612 14.79 16.0547 14.3945C16.8481 13.999 17.5 13.3545 17.5 12.5V5C17.5 4.14551 16.8481 3.50098 16.0547 3.10547C15.2612 2.70996 14.2456 2.5 13.125 2.5ZM13.125 3.75C14.0771 3.75 14.9243 3.95508 15.4883 4.23828C16.0522 4.52148 16.25 4.81934 16.25 5C16.25 5.18066 16.0522 5.47852 15.4883 5.76172C14.9243 6.04492 14.0771 6.25 13.125 6.25C12.1729 6.25 11.3257 6.04492 10.7617 5.76172C10.1978 5.47852 10 5.18066 10 5C10 4.81934 10.1978 4.52148 10.7617 4.23828C11.3257 3.95508 12.1729 3.75 13.125 3.75ZM10 6.77734C10.0659 6.81396 10.127 6.86035 10.1953 6.89453C10.9888 7.29004 12.0044 7.5 13.125 7.5C14.2456 7.5 15.2612 7.29004 16.0547 6.89453C16.123 6.86035 16.1841 6.81396 16.25 6.77734V7.5C16.25 7.68066 16.0522 7.97852 15.4883 8.26172C14.9243 8.54492 14.0771 8.75 13.125 8.75C12.1729 8.75 11.3257 8.54492 10.7617 8.26172C10.1978 7.97852 10 7.68066 10 7.5V6.77734ZM6.875 8.75C7.82715 8.75 8.67432 8.95508 9.23828 9.23828C9.80225 9.52148 10 9.81934 10 10C10 10.1807 9.80225 10.4785 9.23828 10.7617C8.67432 11.0449 7.82715 11.25 6.875 11.25C5.92285 11.25 5.07568 11.0449 4.51172 10.7617C3.94775 10.4785 3.75 10.1807 3.75 10C3.75 9.81934 3.94775 9.52148 4.51172 9.23828C5.07568 8.95508 5.92285 8.75 6.875 8.75ZM16.25 9.27734V10C16.25 10.1807 16.0522 10.4785 15.4883 10.7617C14.9243 11.0449 14.0771 11.25 13.125 11.25C12.4146 11.25 11.7725 11.1328 11.25 10.957V10C11.25 9.91943 11.2231 9.84131 11.2109 9.76562C11.792 9.91699 12.4365 10 13.125 10C14.2456 10 15.2612 9.79004 16.0547 9.39453C16.123 9.36035 16.1841 9.31396 16.25 9.27734ZM3.75 11.7773C3.81592 11.814 3.87695 11.8604 3.94531 11.8945C4.73877 12.29 5.75439 12.5 6.875 12.5C7.99561 12.5 9.01123 12.29 9.80469 11.8945C9.87305 11.8604 9.93408 11.814 10 11.7773V12.5C10 12.6807 9.80225 12.9785 9.23828 13.2617C8.67432 13.5449 7.82715 13.75 6.875 13.75C5.92285 13.75 5.07568 13.5449 4.51172 13.2617C3.94775 12.9785 3.75 12.6807 3.75 12.5V11.7773ZM16.25 11.7773V12.5C16.25 12.6807 16.0522 12.9785 15.4883 13.2617C14.9243 13.5449 14.0771 13.75 13.125 13.75C12.4146 13.75 11.7725 13.6499 11.25 13.4766V12.2656C11.8237 12.417 12.4487 12.5 13.125 12.5C14.2456 12.5 15.2612 12.29 16.0547 11.8945C16.123 11.8604 16.1841 11.814 16.25 11.7773ZM3.75 14.2773C3.81592 14.314 3.87695 14.3604 3.94531 14.3945C4.73877 14.79 5.75439 15 6.875 15C7.99561 15 9.01123 14.79 9.80469 14.3945C9.87305 14.3604 9.93408 14.314 10 14.2773V15C10 15.1807 9.80225 15.4785 9.23828 15.7617C8.67432 16.0449 7.82715 16.25 6.875 16.25C5.92285 16.25 5.07568 16.0449 4.51172 15.7617C3.94775 15.4785 3.75 15.1807 3.75 15V14.2773Z" fill="#FFB6C1"/>
</svg>
