<svg width="24" height="25" viewBox="0 0 24 25" fill="none" xmlns="http://www.w3.org/2000/svg">
<g id="edit-solid">
<path id="Vector" d="M18.75 3.52344C18.1758 3.52344 17.6133 3.74609 17.1797 4.17969L9.75 11.5859L9.58594 11.75L9.53906 11.9844L9.02344 14.6094L8.78906 15.7109L9.89062 15.4766L12.5156 14.9609L12.75 14.9141L12.9141 14.75L20.3203 7.32031C21.1846 6.45605 21.1846 5.04395 20.3203 4.17969C19.8867 3.74609 19.3242 3.52344 18.75 3.52344ZM18.75 4.97656C18.9258 4.97656 19.0986 5.06738 19.2656 5.23438C19.5996 5.56836 19.5996 5.93164 19.2656 6.26562L12 13.5312L10.7109 13.7891L10.9688 12.5L18.2344 5.23438C18.4014 5.06738 18.5742 4.97656 18.75 4.97656ZM3 6.5V21.5H18V11.6094L16.5 13.1094V20H4.5V8H11.3906L12.8906 6.5H3Z" fill="#989898"/>
</g>
</svg>
