<svg width="24" height="25" viewBox="0 0 24 25" fill="none" xmlns="http://www.w3.org/2000/svg">
<g id="eye">
<path id="Vector" d="M12 6.5C5.74805 6.5 0.9375 12.0078 0.9375 12.0078L0.492188 12.5L0.9375 12.9922C0.9375 12.9922 5.32324 17.9932 11.1562 18.4531C11.4346 18.4883 11.7129 18.5 12 18.5C12.2871 18.5 12.5654 18.4883 12.8438 18.4531C18.6768 17.9932 23.0625 12.9922 23.0625 12.9922L23.5078 12.5L23.0625 12.0078C23.0625 12.0078 18.252 6.5 12 6.5ZM12 8C13.6523 8 15.1758 8.45117 16.5 9.05469C16.9775 9.8457 17.25 10.7568 17.25 11.75C17.25 14.46 15.2168 16.6865 12.5859 16.9766C12.5713 16.9795 12.5537 16.9736 12.5391 16.9766C12.3604 16.9854 12.1816 17 12 17C11.8008 17 11.6074 16.9883 11.4141 16.9766C8.7832 16.6865 6.75 14.46 6.75 11.75C6.75 10.7715 7.01367 9.86035 7.47656 9.07812H7.45312C8.78906 8.46289 10.3301 8 12 8ZM12 9.5C10.7578 9.5 9.75 10.5078 9.75 11.75C9.75 12.9922 10.7578 14 12 14C13.2422 14 14.25 12.9922 14.25 11.75C14.25 10.5078 13.2422 9.5 12 9.5ZM5.4375 10.2031C5.32031 10.707 5.25 11.2139 5.25 11.75C5.25 13.0654 5.625 14.2959 6.28125 15.3359C4.3916 14.2432 3.0791 12.9395 2.64844 12.5C3.00879 12.1309 4.01367 11.1523 5.4375 10.2031ZM18.5625 10.2031C19.9863 11.1523 20.9912 12.1309 21.3516 12.5C20.9209 12.9395 19.6084 14.2432 17.7188 15.3359C18.375 14.2959 18.75 13.0654 18.75 11.75C18.75 11.2139 18.6797 10.7012 18.5625 10.2031Z" fill="#C8B477"/>
</g>
</svg>
