<svg width="24" height="24" viewBox="0 0 24 24" fill="none" xmlns="http://www.w3.org/2000/svg">
<circle cx="12" cy="12" r="12" fill="#D75A8B"/>
<path d="M3.83203 6.75V16.6667H20.1654V6.75H3.83203ZM6.16536 7.91667H17.832C17.832 8.56125 18.3541 9.08333 18.9987 9.08333V14.3333C18.3541 14.3333 17.832 14.8554 17.832 15.5H6.16536C6.16536 14.8554 5.64328 14.3333 4.9987 14.3333V9.08333C5.64328 9.08333 6.16536 8.56125 6.16536 7.91667ZM11.9987 9.08333C10.7089 9.08333 9.66536 10.2593 9.66536 11.7083C9.66536 13.1573 10.7089 14.3333 11.9987 14.3333C13.2884 14.3333 14.332 13.1573 14.332 11.7083C14.332 10.2593 13.2884 9.08333 11.9987 9.08333ZM11.9987 10.25C12.6415 10.25 13.1654 10.9039 13.1654 11.7083C13.1654 12.5127 12.6415 13.1667 11.9987 13.1667C11.3559 13.1667 10.832 12.5127 10.832 11.7083C10.832 10.9039 11.3559 10.25 11.9987 10.25ZM7.6237 10.8333C7.1407 10.8333 6.7487 11.2253 6.7487 11.7083C6.7487 12.1913 7.1407 12.5833 7.6237 12.5833C8.1067 12.5833 8.4987 12.1913 8.4987 11.7083C8.4987 11.2253 8.1067 10.8333 7.6237 10.8333ZM16.3737 10.8333C15.8907 10.8333 15.4987 11.2253 15.4987 11.7083C15.4987 12.1913 15.8907 12.5833 16.3737 12.5833C16.8567 12.5833 17.2487 12.1913 17.2487 11.7083C17.2487 11.2253 16.8567 10.8333 16.3737 10.8333Z" fill="white"/>
</svg>
