<svg width="24" height="25" viewBox="0 0 24 25" fill="none" xmlns="http://www.w3.org/2000/svg">
<g id="image">
<path id="Vector" d="M1.5 4.25V20.75H22.5V4.25H1.5ZM3 5.75H21V16.1797L17.0391 12.1953L16.5 11.6562L13.1016 15.0547L8.78906 10.6953L8.25 10.1562L3 15.4062V5.75ZM18 7.25C17.1709 7.25 16.5 7.9209 16.5 8.75C16.5 9.5791 17.1709 10.25 18 10.25C18.8291 10.25 19.5 9.5791 19.5 8.75C19.5 7.9209 18.8291 7.25 18 7.25ZM8.25 12.2891L15.1406 19.25H3V17.5391L8.25 12.2891ZM16.5 13.7891L21 18.2891V19.25H17.2734L14.1562 16.1094L16.5 13.7891Z" fill="#F89336"/>
</g>
</svg>
