<svg width="20" height="20" viewBox="0 0 20 20" fill="none" xmlns="http://www.w3.org/2000/svg">
<path d="M1.25 3.125V16.875H18.75V3.125H1.25ZM2.5 4.375H17.5V13.0664L14.1992 9.74609L13.75 9.29688L10.918 12.1289L7.32422 8.49609L6.875 8.04688L2.5 12.4219V4.375ZM15 5.625C14.3091 5.625 13.75 6.18408 13.75 6.875C13.75 7.56592 14.3091 8.125 15 8.125C15.6909 8.125 16.25 7.56592 16.25 6.875C16.25 6.18408 15.6909 5.625 15 5.625ZM6.875 9.82422L12.6172 15.625H2.5V14.1992L6.875 9.82422ZM13.75 11.0742L17.5 14.8242V15.625H14.3945L11.7969 13.0078L13.75 11.0742Z" fill="white"/>
</svg>
