<svg width="24" height="25" viewBox="0 0 24 25" fill="none" xmlns="http://www.w3.org/2000/svg">
<g id="trash-alt-solid">
<path id="Vector" d="M11.25 3.5C10.8574 3.5 10.4561 3.6377 10.1719 3.92188C9.8877 4.20605 9.75 4.60742 9.75 5V5.75H5.25V7.25H6V19.25C6 20.4834 7.0166 21.5 8.25 21.5H17.25C18.4834 21.5 19.5 20.4834 19.5 19.25V7.25H20.25V5.75H15.75V5C15.75 4.60742 15.6123 4.20605 15.3281 3.92188C15.0439 3.6377 14.6426 3.5 14.25 3.5H11.25ZM11.25 5H14.25V5.75H11.25V5ZM7.5 7.25H18V19.25C18 19.666 17.666 20 17.25 20H8.25C7.83398 20 7.5 19.666 7.5 19.25V7.25ZM9 9.5V17.75H10.5V9.5H9ZM12 9.5V17.75H13.5V9.5H12ZM15 9.5V17.75H16.5V9.5H15Z" fill="#CB3F3F"/>
</g>
</svg>
